<?xml version="1.0" encoding="utf-8"?>

<!DOCTYPE svg PUBLIC "-//W3C//DTD SVG 1.1//EN" "http://www.w3.org/Graphics/SVG/1.1/DTD/svg11.dtd">
<!-- Uploaded to: SVG Repo, www.svgrepo.com, Generator: SVG Repo Mixer Tools -->
<svg color='#cc4425' height="800px" width="800px" version="1.1" id="_x32_" xmlns="http://www.w3.org/2000/svg" xmlns:xlink="http://www.w3.org/1999/xlink" 
	 viewBox="0 0 512 512"  xml:space="preserve">
<style type="text/css">
	.st0{fill:#000000;}
</style>
<g>
	<path class="st0" d="M452.425,202.575l-38.269-23.11c-1.266-10.321-5.924-18.596-13.711-21.947l-86.843-52.444l-0.275,0.598
		c-3.571-7.653-9.014-13.553-16.212-16.668L166.929,10.412l-0.236,0.543v-0.016c-3.453-2.856-7.347-5.239-11.594-7.08
		c-32.315-13.923-74.124,11.013-93.38,55.716c-19.241,44.624-8.7,92.215,23.622,106.154c4.256,1.826,8.669,3.005,13.106,3.556
		l-0.19,0.464l146.548,40.669c7.19,3.107,15.206,3.004,23.229,0.37l-0.236,0.566L365.55,238.5
		c7.819,3.366,17.094,1.125,25.502-5.082l42.957,11.909c7.67,3.312,18.014-3.548,23.104-15.362
		C462.202,218.158,460.11,205.894,452.425,202.575z M154.516,99.56c-11.792,27.374-31.402,43.783-47.19,49.132
		c-6.962,2.281-13.176,2.556-17.605,0.637c-14.536-6.254-25.235-41.856-8.252-81.243c16.976-39.378,50.186-56.055,64.723-49.785
		c4.429,1.904,8.519,6.592,11.626,13.246C164.774,46.699,166.3,72.216,154.516,99.56z"/>
	<path class="st0" d="M297.068,325.878c-1.959-2.706-2.25-6.269-0.724-9.25c1.518-2.981,4.562-4.846,7.913-4.846h4.468
		c4.909,0,8.889-3.972,8.889-8.897v-7.74c0-4.909-3.98-8.897-8.889-8.897h-85.789c-4.908,0-8.897,3.988-8.897,8.897v7.74
		c0,4.925,3.989,8.897,8.897,8.897h4.492c3.344,0,6.388,1.865,7.914,4.846c1.518,2.981,1.235,6.544-0.732,9.25L128.715,459.116
		c-3.225,4.287-2.352,10.36,1.927,13.569c4.295,3.225,10.368,2.344,13.578-1.943l107.884-122.17l4.036,153.738
		c0,5.333,4.342,9.691,9.691,9.691c5.358,0,9.692-4.358,9.692-9.691l4.043-153.738l107.885,122.17
		c3.209,4.287,9.282,5.168,13.568,1.943c4.288-3.209,5.145-9.282,1.951-13.569L297.068,325.878z"/>
	<path class="st0" d="M287.227,250.81c0-11.807-9.573-21.388-21.396-21.388c-11.807,0-21.38,9.582-21.38,21.388
		c0,11.831,9.574,21.428,21.38,21.428C277.654,272.238,287.227,262.642,287.227,250.81z"/>
</g>
</svg>